<svg width="1355" height="661" xmlns="http://www.w3.org/2000/svg" xmlns:xlink="http://www.w3.org/1999/xlink" xml:space="preserve" overflow="hidden"><defs><clipPath id="clip0"><rect x="10" y="13" width="1355" height="661"/></clipPath></defs><g clip-path="url(#clip0)" transform="translate(-10 -13)"><path d="M9.99997 64.8558C9.99997 36.2167 33.2166 13.0001 61.8557 13.0001L1313.14 13.0001C1341.78 13.0001 1365 36.2167 1365 64.8558L1365 622.144C1365 650.783 1341.78 674 1313.14 674L61.8557 674C33.2166 674 9.99997 650.783 9.99997 622.144Z" fill="#FFFFFF" fill-rule="evenodd"/><text fill="#404040" font-family="Roboto,Roboto_MSFontService,sans-serif" font-weight="400" font-size="55" transform="matrix(1 0 0 1 82.7739 256)">Este ícone permite que você acesse novamente o </text><text fill="#404040" font-family="Roboto SemiBold,Roboto SemiBold_MSFontService,sans-serif" font-weight="600" font-size="55" transform="matrix(1 0 0 1 108.853 322)">Guia de Usuário</text><text fill="#404040" font-family="Roboto,Roboto_MSFontService,sans-serif" font-weight="400" font-size="55" transform="matrix(1 0 0 1 499.582 322)"> </text><text fill="#404040" font-family="Roboto,Roboto_MSFontService,sans-serif" font-weight="400" font-size="55" transform="matrix(1 0 0 1 513.332 322)">sempre que precisar, enquanto </text><text fill="#404040" font-family="Roboto,Roboto_MSFontService,sans-serif" font-weight="400" font-size="55" transform="matrix(1 0 0 1 330.572 388)">você navega por esta página.</text><text fill="#404040" font-family="Roboto,Roboto_MSFontService,sans-serif" font-weight="400" font-size="55" transform="matrix(1 0 0 1 1043.85 388)"> </text><text fill="#57AB44" font-family="Roboto,Roboto_MSFontService,sans-serif" font-weight="400" font-size="37" transform="matrix(1 0 0 1 687.201 437)"> </text><text fill="#57AB44" font-family="Roboto,Roboto_MSFontService,sans-serif" font-weight="400" font-size="37" transform="matrix(1 0 0 1 687.201 481)"> </text><text fill="#57AB44" font-family="Roboto,Roboto_MSFontService,sans-serif" font-style="italic" font-weight="400" font-size="50" transform="matrix(1 0 0 1 67.6031 538)">Use esse recurso para tirar dúvidas e entender melhor os </text><text fill="#57AB44" font-family="Roboto,Roboto_MSFontService,sans-serif" font-style="italic" font-weight="400" font-size="50" transform="matrix(1 0 0 1 162.409 598)">indicadores, controles e visualizações do painel.</text><text fill="#57AB44" font-family="Roboto,Roboto_MSFontService,sans-serif" font-style="italic" font-weight="400" font-size="50" transform="matrix(1 0 0 1 1211.99 598)"> </text><text fill="#A6A6A6" font-family="Roboto,Roboto_MSFontService,sans-serif" font-weight="400" font-size="37" transform="matrix(1 0 0 1 409.061 100)">Área 1 </text><text fill="#A6A6A6" font-family="Roboto,Roboto_MSFontService,sans-serif" font-weight="400" font-size="37" transform="matrix(1 0 0 1 524.217 100)">–</text><text fill="#A6A6A6" font-family="Roboto,Roboto_MSFontService,sans-serif" font-weight="400" font-size="37" transform="matrix(1 0 0 1 548.28 100)"> </text><text fill="#A6A6A6" font-family="Roboto,Roboto_MSFontService,sans-serif" font-weight="400" font-size="37" transform="matrix(1 0 0 1 557.446 100)">Ícone do Guia de Usuário</text><text fill="#A6A6A6" font-family="Roboto,Roboto_MSFontService,sans-serif" font-weight="400" font-size="37" transform="matrix(1 0 0 1 965.363 100)"> </text></g></svg>